<svg width="42" height="42" viewBox="0 0 42 42" fill="none" xmlns="http://www.w3.org/2000/svg">
<rect width="42" height="42" rx="4" fill="#FEFA17"/>
<g clip-path="url(#clip0_1_3838)">
<g clip-path="url(#clip1_1_3838)">
<g clip-path="url(#clip2_1_3838)">
<mask id="mask0_1_3838" style="mask-type:luminance" maskUnits="userSpaceOnUse" x="9" y="9" width="24" height="25">
<path d="M33 9.22H9V33.22H33V9.22Z" fill="white"/>
</mask>
<g mask="url(#mask0_1_3838)">
<path d="M13 13.22H15V15.22H13V13.22Z" stroke="black" stroke-width="1.5" stroke-linecap="round" stroke-linejoin="round"/>
<path d="M13 27.22H15V29.22H13V27.22Z" stroke="black" stroke-width="1.5" stroke-linecap="round" stroke-linejoin="round"/>
<path d="M27 13.22H29V15.22H27V13.22Z" stroke="black" stroke-width="1.5" stroke-linecap="round" stroke-linejoin="round"/>
<path d="M27 20.22H29V22.22H27V20.22Z" stroke="black" stroke-width="1.5" stroke-linecap="round" stroke-linejoin="round"/>
<path d="M20 20.22H22V22.22H20V20.22Z" stroke="black" stroke-width="1.5" stroke-linecap="round" stroke-linejoin="round"/>
<path d="M13 20.22H15V22.22H13V20.22Z" stroke="black" stroke-width="1.5" stroke-linecap="round" stroke-linejoin="round"/>
<path d="M20 13.22H22V15.22H20V13.22Z" stroke="black" stroke-width="1.5" stroke-linecap="round" stroke-linejoin="round"/>
<path d="M20 27.22H22V29.22H20V27.22Z" stroke="black" stroke-width="1.5" stroke-linecap="round" stroke-linejoin="round"/>
<path d="M27 27.22H29V29.22H27V27.22Z" stroke="black" stroke-width="1.5" stroke-linecap="round" stroke-linejoin="round"/>
</g>
</g>
</g>
</g>
<defs>
<clipPath id="clip0_1_3838">
<rect width="24" height="24" fill="white" transform="translate(9 9.22)"/>
</clipPath>
<clipPath id="clip1_1_3838">
<rect width="24" height="24" fill="white" transform="translate(9 9.22)"/>
</clipPath>
<clipPath id="clip2_1_3838">
<rect width="24" height="24" fill="white" transform="translate(9 9.22)"/>
</clipPath>
</defs>
</svg>
